<?xml version="1.0" encoding="UTF-8" standalone="no"?>
<!-- Generator: Adobe Illustrator 19.0.0, SVG Export Plug-In . SVG Version: 6.00 Build 0)  -->

<svg
   xmlns:dc="http://purl.org/dc/elements/1.1/"
   xmlns:cc="http://creativecommons.org/ns#"
   xmlns:rdf="http://www.w3.org/1999/02/22-rdf-syntax-ns#"
   xmlns:svg="http://www.w3.org/2000/svg"
   xmlns="http://www.w3.org/2000/svg"
   xmlns:sodipodi="http://sodipodi.sourceforge.net/DTD/sodipodi-0.dtd"
   xmlns:inkscape="http://www.inkscape.org/namespaces/inkscape"
   version="1.1"
   id="Capa_1"
   x="0px"
   y="0px"
   viewBox="0 0 58 58"
   style="enable-background:new 0 0 58 58;"
   xml:space="preserve"
   inkscape:version="0.91 r13725"
   sodipodi:docname="file2.svg"><metadata
     id="metadata53"><rdf:RDF><cc:Work
         rdf:about=""><dc:format>image/svg+xml</dc:format><dc:type
           rdf:resource="http://purl.org/dc/dcmitype/StillImage" /><dc:title /></cc:Work></rdf:RDF></metadata><defs
     id="defs51" /><sodipodi:namedview
     pagecolor="#ffffff"
     bordercolor="#666666"
     borderopacity="1"
     objecttolerance="10"
     gridtolerance="10"
     guidetolerance="10"
     inkscape:pageopacity="0"
     inkscape:pageshadow="2"
     inkscape:window-width="1315"
     inkscape:window-height="744"
     id="namedview49"
     showgrid="false"
     inkscape:zoom="4.0689655"
     inkscape:cx="-13.394068"
     inkscape:cy="29"
     inkscape:window-x="51"
     inkscape:window-y="24"
     inkscape:window-maximized="1"
     inkscape:current-layer="Capa_1" /><circle
     style="fill:#ff8080"
     cx="29"
     cy="29"
     r="29"
     id="circle3" /><g
     id="g4187"
     transform="matrix(0.68220339,0,0,0.68220339,9.2161017,9.2161017)"><polygon
       id="polygon3"
       points="51.5,14 37.5,0 6.5,0 6.5,58 51.5,58 "
       style="fill:#edeada" /><g
       id="g5"><path
         id="path7"
         d="m 16.5,23 25,0 c 0.552,0 1,-0.447 1,-1 0,-0.553 -0.448,-1 -1,-1 l -25,0 c -0.552,0 -1,0.447 -1,1 0,0.553 0.448,1 1,1 z"
         style="fill:#cec9ae"
         inkscape:connector-curvature="0" /><path
         id="path9"
         d="m 16.5,15 10,0 c 0.552,0 1,-0.447 1,-1 0,-0.553 -0.448,-1 -1,-1 l -10,0 c -0.552,0 -1,0.447 -1,1 0,0.553 0.448,1 1,1 z"
         style="fill:#cec9ae"
         inkscape:connector-curvature="0" /><path
         id="path11"
         d="m 41.5,29 -25,0 c -0.552,0 -1,0.447 -1,1 0,0.553 0.448,1 1,1 l 25,0 c 0.552,0 1,-0.447 1,-1 0,-0.553 -0.448,-1 -1,-1 z"
         style="fill:#cec9ae"
         inkscape:connector-curvature="0" /><path
         id="path13"
         d="m 41.5,37 -25,0 c -0.552,0 -1,0.447 -1,1 0,0.553 0.448,1 1,1 l 25,0 c 0.552,0 1,-0.447 1,-1 0,-0.553 -0.448,-1 -1,-1 z"
         style="fill:#cec9ae"
         inkscape:connector-curvature="0" /><path
         id="path15"
         d="m 41.5,45 -25,0 c -0.552,0 -1,0.447 -1,1 0,0.553 0.448,1 1,1 l 25,0 c 0.552,0 1,-0.447 1,-1 0,-0.553 -0.448,-1 -1,-1 z"
         style="fill:#cec9ae"
         inkscape:connector-curvature="0" /></g><polygon
       id="polygon17"
       points="51.5,14 37.5,0 37.5,14 "
       style="fill:#cec9ae" /></g><g
     id="g19" /><g
     id="g21" /><g
     id="g23" /><g
     id="g25" /><g
     id="g27" /><g
     id="g29" /><g
     id="g31" /><g
     id="g33" /><g
     id="g35" /><g
     id="g37" /><g
     id="g39" /><g
     id="g41" /><g
     id="g43" /><g
     id="g45" /><g
     id="g47" /></svg>