<?xml version="1.0" encoding="UTF-8" standalone="no"?>
<!-- Generator: Adobe Illustrator 18.0.0, SVG Export Plug-In . SVG Version: 6.00 Build 0)  -->

<svg
   xmlns:dc="http://purl.org/dc/elements/1.1/"
   xmlns:cc="http://creativecommons.org/ns#"
   xmlns:rdf="http://www.w3.org/1999/02/22-rdf-syntax-ns#"
   xmlns:svg="http://www.w3.org/2000/svg"
   xmlns="http://www.w3.org/2000/svg"
   xmlns:sodipodi="http://sodipodi.sourceforge.net/DTD/sodipodi-0.dtd"
   xmlns:inkscape="http://www.inkscape.org/namespaces/inkscape"
   version="1.1"
   id="Capa_1"
   x="0px"
   y="0px"
   viewBox="0 0 54 54"
   style="enable-background:new 0 0 54 54;"
   xml:space="preserve"
   inkscape:version="0.91 r13725"
   sodipodi:docname="upload.svg"><metadata
     id="metadata47"><rdf:RDF><cc:Work
         rdf:about=""><dc:format>image/svg+xml</dc:format><dc:type
           rdf:resource="http://purl.org/dc/dcmitype/StillImage" /><dc:title></dc:title></cc:Work></rdf:RDF></metadata><defs
     id="defs45" /><sodipodi:namedview
     pagecolor="#ffffff"
     bordercolor="#666666"
     borderopacity="1"
     objecttolerance="10"
     gridtolerance="10"
     guidetolerance="10"
     inkscape:pageopacity="0"
     inkscape:pageshadow="2"
     inkscape:window-width="1315"
     inkscape:window-height="744"
     id="namedview43"
     showgrid="false"
     inkscape:zoom="4.3703704"
     inkscape:cx="26.771186"
     inkscape:cy="27"
     inkscape:window-x="51"
     inkscape:window-y="24"
     inkscape:window-maximized="1"
     inkscape:current-layer="Capa_1" /><g
     id="g3"
     transform="matrix(-1,0,0,-1,54,54)"><g
       id="g5"><path
         style="fill:#2e9338;fill-opacity:1"
         d="m 1,27 0,0 C 1,12.641 12.641,1 27,1 l 0,0 c 14.359,0 26,11.641 26,26 l 0,0 C 53,41.359 41.359,53 27,53 l 0,0 C 12.641,53 1,41.359 1,27 Z"
         id="path7"
         inkscape:connector-curvature="0" /><path
         style="fill:#2e9338;fill-opacity:1"
         d="M 27,54 C 12.112,54 0,41.888 0,27 0,12.112 12.112,0 27,0 41.888,0 54,12.112 54,27 54,41.888 41.888,54 27,54 Z M 27,2 C 13.215,2 2,13.215 2,27 2,40.785 13.215,52 27,52 40.785,52 52,40.785 52,27 52,13.215 40.785,2 27,2 Z"
         id="path9"
         inkscape:connector-curvature="0" /></g><path
       style="fill:#ffffff"
       d="m 27,34.999 c -0.438,0 -0.875,-0.167 -1.209,-0.5 L 14.293,23.001 c -0.391,-0.391 -0.391,-1.023 0,-1.414 0.391,-0.391 1.023,-0.391 1.414,0 L 27,32.88 38.293,21.587 c 0.391,-0.391 1.023,-0.391 1.414,0 0.391,0.391 0.391,1.023 0,1.414 L 28.209,34.499 c -0.333,0.333 -0.771,0.5 -1.209,0.5 z"
       id="path11"
       inkscape:connector-curvature="0" /></g><g
     id="g13" /><g
     id="g15" /><g
     id="g17" /><g
     id="g19" /><g
     id="g21" /><g
     id="g23" /><g
     id="g25" /><g
     id="g27" /><g
     id="g29" /><g
     id="g31" /><g
     id="g33" /><g
     id="g35" /><g
     id="g37" /><g
     id="g39" /><g
     id="g41" /></svg>